<?xml version="1.0" encoding="UTF-8" standalone="no"?>
<!-- Created with Inkscape (http://www.inkscape.org/) -->

<svg
   width="885"
   height="520"
   viewBox="0 0 234.15689 137.58333"
   version="1.1"
   id="svg1"
   inkscape:version="1.3 (0e150ed6c4, 2023-07-21)"
   sodipodi:docname="logo-moodzahi.svg"
   xmlns:inkscape="http://www.inkscape.org/namespaces/inkscape"
   xmlns:sodipodi="http://sodipodi.sourceforge.net/DTD/sodipodi-0.dtd"
   xmlns:xlink="http://www.w3.org/1999/xlink"
   xmlns="http://www.w3.org/2000/svg"
   xmlns:svg="http://www.w3.org/2000/svg">
  <sodipodi:namedview
     id="namedview1"
     pagecolor="#ffffff"
     bordercolor="#000000"
     borderopacity="0.25"
     inkscape:showpageshadow="2"
     inkscape:pageopacity="0.0"
     inkscape:pagecheckerboard="0"
     inkscape:deskcolor="#d1d1d1"
     inkscape:document-units="mm"
     inkscape:zoom="0.73139029"
     inkscape:cx="479.90793"
     inkscape:cy="357.53824"
     inkscape:window-width="1920"
     inkscape:window-height="1017"
     inkscape:window-x="1912"
     inkscape:window-y="-8"
     inkscape:window-maximized="1"
     inkscape:current-layer="layer1" />
  <defs
     id="defs1">
    <radialGradient
       inkscape:collect="always"
       xlink:href="#linearGradient94"
       id="radialGradient95"
       cx="65.29705"
       cy="221.5537"
       fx="65.29705"
       fy="221.5537"
       r="121.84164"
       gradientTransform="matrix(0.02763067,-0.31611522,0.43979031,0.03844073,-14.311934,66.410306)"
       gradientUnits="userSpaceOnUse" />
    <linearGradient
       id="linearGradient94"
       inkscape:collect="always">
      <stop
         style="stop-color:#fdc906;stop-opacity:1;"
         offset="0"
         id="stop94" />
      <stop
         style="stop-color:#65602b;stop-opacity:1;"
         offset="1"
         id="stop95" />
    </linearGradient>
    <radialGradient
       inkscape:collect="always"
       xlink:href="#linearGradient94"
       id="radialGradient108"
       gradientUnits="userSpaceOnUse"
       gradientTransform="matrix(0.00540181,-0.39678761,0.28677946,0.00390418,30.803905,109.67865)"
       cx="21.314096"
       cy="89.66745"
       fx="21.314096"
       fy="89.66745"
       r="121.84164" />
    <radialGradient
       inkscape:collect="always"
       xlink:href="#linearGradient112"
       id="radialGradient113"
       cx="104.97746"
       cy="190.31561"
       fx="104.97746"
       fy="190.31561"
       r="121.17542"
       gradientTransform="matrix(0.52476112,0.01415314,-0.00274256,0.10168699,52.122707,100.55073)"
       gradientUnits="userSpaceOnUse" />
    <linearGradient
       id="linearGradient112"
       inkscape:collect="always">
      <stop
         style="stop-color:#66612d;stop-opacity:1;"
         offset="0"
         id="stop112" />
      <stop
         style="stop-color:#66612d;stop-opacity:1;"
         offset="1"
         id="stop113" />
    </linearGradient>
    <linearGradient
       inkscape:collect="always"
       xlink:href="#linearGradient147"
       id="linearGradient146"
       x1="197.2849"
       y1="191.3555"
       x2="226.15288"
       y2="191.3555"
       gradientUnits="userSpaceOnUse"
       gradientTransform="matrix(0.52495195,0,0,0.52495195,51.580722,21.482568)" />
    <linearGradient
       id="linearGradient147"
       inkscape:collect="always">
      <stop
         style="stop-color:#66612d;stop-opacity:1;"
         offset="0"
         id="stop146" />
      <stop
         style="stop-color:#eabc0a;stop-opacity:1;"
         offset="1"
         id="stop147" />
    </linearGradient>
    <linearGradient
       inkscape:collect="always"
       xlink:href="#linearGradient145"
       id="linearGradient144"
       x1="-16.197952"
       y1="191.32539"
       x2="17.428732"
       y2="191.32539"
       gradientUnits="userSpaceOnUse"
       gradientTransform="matrix(0.52495195,0,0,0.52495195,51.580722,21.482568)" />
    <linearGradient
       id="linearGradient145"
       inkscape:collect="always">
      <stop
         style="stop-color:#ecbe0a;stop-opacity:1;"
         offset="0"
         id="stop144" />
      <stop
         style="stop-color:#66612d;stop-opacity:1;"
         offset="1"
         id="stop145" />
    </linearGradient>
  </defs>
  <g
     inkscape:label="Capa 1"
     inkscape:groupmode="layer"
     id="layer1">
    <g
       id="g158"
       transform="matrix(1.779848,0,0,1.779848,-73.099948,-83.896371)">
      <path
         id="path103"
         style="fill:url(#radialGradient95);stroke-width:0.524952"
         d="m 74.716548,90.244086 c -0.09167,-0.0917 -0.166672,-0.24029 -0.166672,-0.33026 0,-0.09 1.514818,-1.59315 3.366261,-3.34039 1.851445,-1.74724 5.054677,-4.77333 7.118295,-6.72464 2.063617,-1.95131 6.439623,-6.04042 9.724455,-9.0869 12.555353,-11.644334 15.356133,-14.285481 15.306973,-14.434525 -0.12371,-0.375112 -4.65034,-0.63618 -20.723822,-1.195223 -4.507095,-0.156759 -8.971865,-0.335911 -9.921711,-0.398115 -1.711324,-0.112072 -1.730225,-0.117049 -2.083403,-0.548577 -0.196026,-0.239513 -0.75898,-1.219818 -1.251011,-2.178456 -0.836427,-1.629636 -0.879485,-1.758093 -0.662158,-1.975419 0.265748,-0.265748 0.98653,-0.281735 29.613255,-0.6568 8.9378,-0.117103 19.27277,-0.254686 22.9666,-0.30574 5.93227,-0.08199 6.71032,-0.0685 6.66689,0.115641 -0.027,0.114656 -0.70544,0.792933 -1.50755,1.507281 -0.80211,0.714348 -2.05215,1.840617 -2.77787,2.50282 -0.72571,0.662202 -2.94454,2.662075 -4.93072,4.444161 -1.98618,1.782086 -4.36383,3.931454 -5.28366,4.776372 -3.17762,2.9188 -9.69251,8.84965 -13.8169,12.57826 -0.88725,0.8021 -2.61511,2.37756 -3.83967,3.50101 l -2.22649,2.04263 -3.875525,1.75715 c -2.131539,0.96644 -4.330592,1.94643 -4.886786,2.17776 -0.556193,0.23134 -0.99005,0.44183 -0.964126,0.46775 0.02592,0.0259 1.481025,-0.25845 3.233557,-0.63196 1.752533,-0.37349 4.039017,-0.84125 5.081076,-1.03945 l 1.894654,-0.36037 7.53855,0.0359 c 4.99701,0.0238 7.55456,0.084 7.58603,0.1784 0.0261,0.0784 -0.93332,0.95339 -2.13206,1.94451 -1.19875,0.99112 -3.10707,2.59894 -4.24073,3.57293 l -2.06119,1.7709 H 91.172155 c -12.48398,0 -16.327867,-0.0389 -16.455607,-0.16667 z m 35.910922,0.0873 c -0.20612,-0.20946 -0.0972,-0.56966 0.27779,-0.91846 0.21008,-0.19542 1.38199,-1.12274 2.60426,-2.06071 7.4627,-5.72694 13.26479,-11.59869 16.94703,-17.15051 2.00969,-3.03005 4.37313,-7.602514 4.37313,-8.460534 0,-0.444145 -0.32544,-0.618131 -1.34781,-0.720576 -1.59202,-0.159524 -3.91028,0.581107 -6.17758,1.973592 -2.0632,1.267138 -2.46834,1.456758 -2.76887,1.295908 -0.40302,-0.21568 -0.31494,-0.67604 0.3133,-1.637534 1.69157,-2.588874 4.71321,-4.787123 7.68921,-5.593921 1.68727,-0.457422 4.18807,-0.429514 5.69464,0.06355 1.82745,0.598084 2.71799,1.214095 4.87087,3.369341 2.52413,2.526893 2.9695,2.769494 5.06001,2.756284 1.61594,-0.0102 2.48615,-0.260579 4.61514,-1.3278 1.15005,-0.576501 1.59632,-0.661773 1.72386,-0.329394 0.16619,0.433081 -0.1295,0.948174 -1.16932,2.036934 -3.58564,3.75442 -7.52855,4.58059 -11.11853,2.32968 l -0.8919,-0.55922 -0.22558,0.31391 c -0.53999,0.75145 -2.79511,4.30705 -2.79511,4.40699 0,0.0606 0.5469,0.25235 1.21532,0.42612 3.27179,0.8506 5.40036,2.02967 6.09733,3.37744 0.36635,0.70846 0.39746,2.1104 0.0676,3.04795 -0.7088,2.01478 -2.94681,4.28345 -6.7646,6.85726 -2.76468,1.86385 -6.33298,3.48381 -7.0596,3.20498 -0.48343,-0.18551 -0.1973,-0.6274 1.18986,-1.83761 3.34872,-2.92154 5.96999,-5.68778 6.64677,-7.01436 0.76997,-1.50929 0.15864,-1.95717 -3.80174,-2.78528 l -1.50621,-0.31495 -0.71608,0.81638 c -2.51187,2.86366 -8.22842,7.28814 -13.39858,10.37019 -2.04461,1.21883 -6.3369,3.34378 -7.52652,3.72609 -1.06321,0.34169 -1.97194,0.48681 -2.11813,0.33826 z M 71.702559,79.279606 c -4.802958,-0.13204 -6.45855,-0.23483 -6.45855,-0.40098 0,-0.0648 0.265634,-0.15348 0.590297,-0.19695 0.607611,-0.0814 10.400001,-0.69811 13.368504,-0.84199 0.916697,-0.0444 1.87067,-0.1122 2.11994,-0.1506 0.341977,-0.0527 0.475556,-0.0116 0.544227,0.16736 0.06617,0.17244 -0.114389,0.41945 -0.661557,0.90502 l -0.752568,0.66786 -2.291744,-0.0176 c -1.260459,-0.01 -4.166806,-0.0691 -6.458549,-0.13214 z m 3.402892,-9.03121 c -11.708619,-0.16015 -16.597779,-0.29568 -16.597779,-0.46012 0,-0.0746 0.281259,-0.18022 0.625021,-0.23467 0.618135,-0.0979 11.678834,-0.67859 18.125607,-0.95159 1.833395,-0.0776 4.67724,-0.20088 6.319657,-0.27387 4.496427,-0.19982 5.549297,-0.20237 5.7378,-0.0139 0.127547,0.12755 -0.06022,0.38472 -0.825395,1.13046 l -0.990502,0.96534 -1.926228,-0.0224 c -1.059426,-0.0123 -5.770108,-0.075 -10.468181,-0.13926 z m 4.097359,-8.0559 C 66.681186,61.946102 64.202032,61.869382 64.232783,61.729234 c 0.05362,-0.244376 3.277555,-0.457972 15.664495,-1.03782 11.003126,-0.515071 14.91695,-0.629118 15.105889,-0.44018 0.137181,0.137182 -0.0297,0.369238 -0.81817,1.137677 l -0.990502,0.965344 -4.009631,-0.02212 c -2.205298,-0.01216 -6.697222,-0.075 -9.982054,-0.139639 z m 63.83184,-5.083442 c -0.97041,-0.380563 -1.8915,-1.369666 -2.17108,-2.331384 -1.08786,-3.742105 3.01562,-7.239926 6.44254,-5.491642 1.19887,0.611616 1.96068,1.919855 1.96544,3.375193 0.006,1.8109 -0.9636,3.354621 -2.64834,4.216806 -0.97052,0.496673 -2.63753,0.603993 -3.58856,0.231027 z" />
      <path
         id="path96"
         style="fill:#66612d;fill-opacity:1;stroke-width:0.524952"
         d="m 96.133013,113.13135 c -0.04581,-0.11937 0.266428,-1.57709 0.693855,-3.23937 0.427427,-1.66228 1.174323,-4.64739 1.659769,-6.63357 l 0.882631,-3.611234 3.875572,-0.0414 c 4.3535,-0.0465 5.04095,0.0319 6.53486,0.744854 1.90776,0.91048 2.8656,2.45871 2.87308,4.64394 0.0125,3.65247 -2.6374,6.9155 -6.50462,8.00963 -1.22555,0.34675 -9.888676,0.45671 -10.015147,0.12713 z m 9.980787,-3.02491 c 2.64791,-1.2409 4.05978,-4.50112 2.79439,-6.45265 -0.77988,-1.20274 -1.93256,-1.57597 -4.86726,-1.57597 h -1.97942 l -0.13446,0.52085 c -0.99621,3.8591 -1.959655,7.70554 -1.959655,7.82368 0,0.10276 0.832435,0.1351 2.673705,0.10387 2.56621,-0.0435 2.70582,-0.0604 3.4727,-0.41978 z m 7.13882,3.11667 c -0.0803,-0.12998 0.55544,-2.54573 0.70444,-2.67667 0.0594,-0.0522 2.45186,-1.96339 5.31654,-4.24706 l 5.20851,-4.15211 -4.13208,-0.0368 c -3.82015,-0.034 -4.13123,-0.055 -4.12076,-0.27779 0.006,-0.13255 0.1165,-0.67851 0.24503,-1.21325 l 0.2337,-0.972254 6.38714,-0.0362 c 3.51292,-0.0199 6.46156,-0.008 6.55251,0.0272 0.27632,0.10593 -0.40085,2.404654 -0.78833,2.676054 -0.60185,0.42155 -5.50266,4.26764 -7.91473,6.21138 l -2.42638,1.95526 4.26672,0.0368 c 4.18309,0.036 4.26671,0.0423 4.26671,0.31869 0,0.41455 -0.43525,2.11651 -0.59286,2.31828 -0.10506,0.13449 -1.60111,0.17362 -6.63842,0.17362 -3.57653,0 -6.53201,-0.0473 -6.56774,-0.10509 z m 15.46574,-0.0331 c 0,-0.0808 1.5728,-2.31728 3.49511,-4.96986 1.92232,-2.65257 4.11905,-5.68412 4.88164,-6.73677 l 1.38651,-1.913894 1.67409,0.0388 1.67409,0.0388 0.54167,2.361194 c 0.29792,1.29865 1.00343,4.32163 1.56779,6.71773 0.56437,2.39609 0.99197,4.41179 0.95024,4.47931 -0.0417,0.0675 -0.75853,0.12278 -1.59287,0.12278 h -1.51698 l -0.086,-0.38196 c -0.13392,-0.59465 -0.32227,-1.37098 -0.48019,-1.97923 l -0.14425,-0.55557 h -3.52008 -3.52007 l -1.02608,1.42366 -1.02609,1.42365 -1.62925,0.0392 c -1.07799,0.0259 -1.62925,-0.0106 -1.62925,-0.10785 z m 11.75527,-5.73009 c -0.0457,-0.17188 -0.28714,-1.29692 -0.53652,-2.50009 -0.24939,-1.20316 -0.49363,-2.18757 -0.54275,-2.18757 -0.0696,0 -2.8367,3.97333 -3.35627,4.81932 -0.0895,0.14574 0.33825,0.18085 2.20377,0.18085 h 2.31485 z m 6.824,5.70141 c -0.0306,-0.0918 0.15444,-0.95116 0.41117,-1.90978 0.25674,-0.95862 0.96741,-3.74302 1.57927,-6.18754 0.61187,-2.44453 1.17407,-4.67898 1.24933,-4.96545 l 0.13685,-0.520854 h 1.59192 c 1.2284,0 1.59192,0.042 1.59192,0.1839 0,0.10114 -0.25001,1.198224 -0.55557,2.437944 -0.30557,1.23974 -0.55558,2.34452 -0.55558,2.45509 0,0.17017 0.54255,0.20102 3.53526,0.20102 h 3.53526 l 0.13808,-0.50011 c 0.076,-0.27507 0.36793,-1.46261 0.64885,-2.63898 l 0.51075,-2.138864 h 1.57179 c 0.86448,0 1.59693,0.0469 1.62767,0.10417 0.0307,0.0573 -0.69997,3.135524 -1.6238,6.840514 l -1.67969,6.73633 -1.56255,0.0393 c -1.54641,0.0388 -1.56254,0.036 -1.56069,-0.27779 0.001,-0.17438 0.28229,-1.41067 0.62503,-2.74731 0.34273,-1.33664 0.62315,-2.50855 0.62315,-2.60426 0,-0.13486 -0.79736,-0.174 -3.54477,-0.174 -3.54391,0 -3.54479,8e-5 -3.67823,0.31251 -0.0734,0.17188 -0.38568,1.3438 -0.69393,2.60426 -0.30827,1.26045 -0.62053,2.43237 -0.69394,2.60425 -0.12681,0.29691 -0.20934,0.31251 -1.6527,0.31251 -1.05901,0 -1.53608,-0.0506 -1.57485,-0.16684 z m 17.11637,-0.0215 c 0,-0.14632 2.65649,-11.11971 3.16551,-13.07603 l 0.10841,-0.416684 1.62704,-0.0391 c 1.11201,-0.0268 1.62704,0.009 1.62704,0.11327 0,0.25312 -3.18158,12.957734 -3.32928,13.294364 -0.13025,0.29689 -0.21363,0.31251 -1.66791,0.31251 -1.1957,0 -1.53081,-0.0412 -1.53081,-0.1883 z" />
      <path
         id="path49"
         style="fill:url(#radialGradient108);stroke-width:0.524952"
         d="m 68.924688,113.51788 c -0.944268,-0.14548 -2.201789,-0.6649 -2.958608,-1.22203 -2.02599,-1.49145 -2.690826,-4.13073 -1.737348,-6.89695 0.223796,-0.64928 0.640355,-1.53222 0.925685,-1.96209 0.774509,-1.16684 2.223585,-2.46012 3.49643,-3.1205 1.603115,-0.831744 2.525677,-1.069574 4.16286,-1.073154 1.772592,-0.004 2.848788,0.30421 4.185414,1.198214 1.211945,0.8106 2.071033,1.89036 2.904342,3.6504 0.325515,0.68752 0.935359,1.97898 1.355207,2.8699 1.113479,2.36282 1.986192,3.22784 3.699329,3.66672 2.968945,0.76061 6.437613,-1.87232 6.646194,-5.04487 0.08591,-1.30666 -0.188955,-2.05765 -1.021231,-2.79025 -0.772287,-0.67979 -1.572951,-0.90985 -2.873547,-0.82566 -1.760989,0.114 -3.344587,1.06758 -4.418745,2.66079 -0.338537,0.50213 -0.661828,0.91493 -0.718425,0.91735 -0.0566,0.003 -0.420825,-0.62913 -0.809394,-1.40345 l -0.70649,-1.40784 0.951372,-0.91862 c 2.762497,-2.667404 6.696181,-3.484264 9.72354,-2.019174 1.782332,0.862574 2.77885,2.202544 3.120751,4.196364 0.434755,2.5353 -1.116051,5.85629 -3.543637,7.58858 -1.844865,1.31647 -3.555687,1.88547 -5.669039,1.88547 -1.667093,0 -3.156017,-0.42632 -4.407416,-1.26197 -1.506896,-1.00627 -2.297278,-2.15869 -3.650808,-5.32309 -0.455512,-1.06494 -0.951583,-2.17809 -1.10238,-2.47368 -0.412313,-0.8082 -1.20274,-1.61373 -1.989501,-2.02753 -0.610562,-0.32112 -0.869033,-0.37005 -1.960526,-0.37116 -1.174672,-10e-4 -1.326632,0.033 -2.313696,0.52084 -1.913837,0.94587 -3.147301,2.6968 -3.274838,4.6487 -0.127207,1.94685 0.76652,3.09796 2.732638,3.51961 1.920643,0.41191 4.31403,-0.84819 5.918757,-3.11617 l 0.277787,-0.39259 0.659744,1.26615 c 0.36286,0.69639 0.659745,1.35363 0.659745,1.46055 0,0.10692 -0.450385,0.60545 -1.000854,1.10786 -1.058095,0.9657 -2.594388,1.85103 -3.856028,2.22212 -0.788864,0.23203 -2.682912,0.38277 -3.407284,0.27116 z m -25.904709,-0.35876 c -5.78e-4,-0.098 0.539144,-2.49074 1.199398,-5.31723 0.660254,-2.82648 1.364328,-5.85783 1.564609,-6.73633 l 0.364149,-1.597284 h 1.521035 1.521036 l 1.57737,3.680684 c 0.867554,2.02438 1.624188,3.72843 1.68141,3.78679 0.05722,0.0584 0.787562,-0.65672 1.62298,-1.58908 0.835418,-0.93236 1.862703,-2.07421 2.282856,-2.53745 0.420153,-0.46325 1.260431,-1.42009 1.867284,-2.12633 l 1.103368,-1.284064 h 1.505244 c 1.0767,0 1.523875,0.0495 1.570683,0.17362 0.03599,0.0955 -0.242631,1.486164 -0.61916,3.090384 -0.376529,1.60423 -1.072357,4.57308 -1.546282,6.59745 -0.473926,2.02437 -0.923693,3.75881 -0.999481,3.85429 -0.163188,0.20561 -2.958004,0.2483 -3.082361,0.0471 -0.04301,-0.0696 0.355559,-1.95908 0.885715,-4.19885 0.530157,-2.23977 0.94945,-4.08678 0.931762,-4.10447 -0.01769,-0.0177 -1.304424,1.40303 -2.859415,3.15715 l -2.827256,3.18931 H 51.603546 50.92217 l -0.459124,-1.00748 c -0.252519,-0.55412 -0.849363,-1.94479 -1.326322,-3.09038 -0.892625,-2.14398 -1.112701,-2.55218 -1.119225,-2.07596 -0.002,0.14896 -0.428386,2.05215 -0.947434,4.22931 l -0.943724,3.95846 -1.55265,0.0393 c -1.190656,0.0301 -1.552897,-0.002 -1.553712,-0.1389 z" />
      <path
         id="path114"
         style="fill:url(#radialGradient113);stroke-width:0.524952"
         d="m 67.045774,121.00212 q -0.331322,-0.18604 -0.688436,-0.18604 -0.345209,0 -0.615028,0.14883 -0.267836,0.14698 -0.414649,0.4093 -0.146813,0.26232 -0.146813,0.59162 0,0.38326 0.224188,0.59534 0.226171,0.21024 0.61106,0.21024 0.196413,0 0.369018,-0.0409 0.172605,-0.0409 0.359098,-0.13581 l -0.105151,0.4465 q -0.319418,0.13023 -0.740019,0.13023 -0.371001,0 -0.652724,-0.14325 -0.279739,-0.14511 -0.43052,-0.40929 Q 64.667,122.35284 64.667,122.0068 q 0,-0.46511 0.212285,-0.83162 0.214268,-0.36837 0.603125,-0.56557 0.388857,-0.19721 0.90072,-0.19721 0.400761,0 0.76581,0.14511 z m 4.061176,0.54697 q 0,0.43163 -0.196412,0.8093 -0.194429,0.3758 -0.539639,0.59534 -0.34521,0.21767 -0.819377,0.21767 -0.347194,0 -0.615029,-0.14326 -0.265852,-0.14324 -0.412665,-0.40557 -0.144829,-0.26232 -0.144829,-0.59348 0,-0.34977 0.117054,-0.64744 0.117053,-0.29767 0.339257,-0.52278 0.224188,-0.22697 0.49996,-0.33674 0.277754,-0.10977 0.605109,-0.10977 0.343225,0 0.609077,0.14139 0.267835,0.13954 0.412664,0.4 0.14483,0.25861 0.14483,0.59534 z m -0.515831,0.0168 q 0,-0.34605 -0.19046,-0.54697 -0.188477,-0.20279 -0.511864,-0.20279 -0.269819,0 -0.503926,0.16 -0.232124,0.15814 -0.363066,0.4465 -0.128958,0.28837 -0.128958,0.60464 0,0.34047 0.184509,0.54326 0.186493,0.20093 0.513847,0.20093 0.283707,0 0.509879,-0.15628 0.228156,-0.15628 0.359097,-0.44837 0.130942,-0.29209 0.130942,-0.60092 z m 4.186166,-0.43907 q 0,0.32744 -0.232124,0.53953 -0.232124,0.21209 -0.611061,0.25116 v 0.007 q 0.224188,0.0688 0.309498,0.38883 l 0.218236,0.81116 h -0.525751 l -0.182524,-0.74046 q -0.04167,-0.17116 -0.136894,-0.25302 -0.09325,-0.0837 -0.253947,-0.0837 h -0.178557 l -0.246012,1.0772 h -0.494007 l 0.603125,-2.66787 h 0.878896 q 0.400762,0 0.62495,0.17673 0.226172,0.17674 0.226172,0.49302 z m -0.515831,0.067 q 0,-0.16744 -0.111102,-0.26791 -0.109118,-0.10232 -0.337274,-0.10232 h -0.353146 l -0.194428,0.8558 h 0.327354 q 0.313466,0 0.490039,-0.13023 0.178557,-0.13209 0.178557,-0.35534 z m 4.114742,-0.067 q 0,0.32744 -0.232123,0.53953 -0.232124,0.21209 -0.611061,0.25116 v 0.007 q 0.224187,0.0688 0.309498,0.38883 l 0.218236,0.81116 h -0.52575 l -0.182525,-0.74046 q -0.04167,-0.17116 -0.136894,-0.25302 -0.09325,-0.0837 -0.253948,-0.0837 h -0.178556 l -0.246012,1.0772 h -0.494007 l 0.603125,-2.66787 h 0.878897 q 0.40076,0 0.624949,0.17673 0.226171,0.17674 0.226171,0.49302 z m -0.515831,0.067 q 0,-0.16744 -0.111101,-0.26791 -0.109118,-0.10232 -0.337274,-0.10232 h -0.353146 l -0.194428,0.8558 h 0.327353 q 0.313467,0 0.49004,-0.13023 0.178556,-0.13209 0.178556,-0.35534 z m 3.836989,-0.34976 h -1.045549 l -0.170622,0.75533 h 0.972143 l -0.08928,0.38698 h -0.970159 l -0.172605,0.75348 h 1.113005 l -0.08531,0.38511 h -1.607011 l 0.603126,-2.66787 h 1.54154 z m 4.489712,0.38697 q 0.242044,0 0.44044,0.11348 0.200381,0.11163 0.317435,0.30512 0.117054,0.19348 0.117054,0.39999 0,0.21954 -0.119038,0.41116 -0.117054,0.18976 -0.319418,0.29953 -0.202365,0.10977 -0.430521,0.10977 -0.236092,0 -0.442424,-0.11163 -0.204349,-0.11162 -0.321402,-0.30139 -0.11507,-0.18976 -0.11507,-0.40744 0,-0.22325 0.119037,-0.41115 0.119039,-0.18791 0.325371,-0.29768 0.206332,-0.10976 0.428536,-0.10976 z m 6.755399,-0.38697 h -1.045549 l -0.170621,0.75533 h 0.972143 l -0.08928,0.38698 h -0.970159 l -0.172604,0.75348 h 1.113004 l -0.08531,0.38511 h -1.607011 l 0.603125,-2.66787 h 1.541541 z m 3.610817,2.2809 h -0.476151 l -0.970159,-1.91626 q -0.01191,-0.0242 -0.04166,-0.093 -0.02778,-0.0688 -0.03373,-0.0986 h -0.01191 l -0.01786,0.12651 -0.02381,0.13581 -0.418616,1.84556 h -0.466232 l 0.601142,-2.66787 h 0.517814 l 0.950319,1.90695 q 0.04563,0.0949 0.06547,0.15628 h 0.0079 q 0.0099,-0.12837 0.0377,-0.24744 l 0.412665,-1.81579 h 0.470199 z m 4.156408,-2.2809 h -0.805491 l -0.513847,2.2809 h -0.492024 l 0.513848,-2.2809 h -0.819379 l 0.08928,-0.38697 h 2.116893 z m 3.35885,0.28278 q 0,0.32744 -0.23212,0.53953 -0.23213,0.21209 -0.61106,0.25116 v 0.007 q 0.22419,0.0688 0.3095,0.38883 l 0.21823,0.81116 h -0.52575 l -0.18252,-0.74046 q -0.0417,-0.17116 -0.1369,-0.25302 -0.0932,-0.0837 -0.25394,-0.0837 h -0.17856 l -0.24601,1.0772 h -0.49401 l 0.60312,-2.66787 h 0.8789 q 0.40076,0 0.62495,0.17673 0.22617,0.17674 0.22617,0.49302 z m -0.51583,0.067 q 0,-0.16744 -0.1111,-0.26791 -0.10912,-0.10232 -0.33727,-0.10232 h -0.35315 l -0.19443,0.8558 h 0.32736 q 0.31346,0 0.49003,-0.13023 0.17856,-0.13209 0.17856,-0.35534 z m 3.83699,-0.34976 h -1.04555 l -0.17062,0.75533 h 0.97214 l -0.0893,0.38698 h -0.97015 l -0.17261,0.75348 h 1.11301 l -0.0853,0.38511 h -1.60701 l 0.60312,-2.66787 h 1.54154 z m 3.61082,2.2809 h -0.47615 l -0.97016,-1.91626 q -0.0119,-0.0242 -0.0417,-0.093 -0.0278,-0.0688 -0.0337,-0.0986 h -0.0119 l -0.0179,0.12651 -0.0238,0.13581 -0.41862,1.84556 h -0.46622 l 0.60114,-2.66787 h 0.51781 l 0.95032,1.90695 q 0.0457,0.0949 0.0655,0.15628 h 0.008 q 0.01,-0.12837 0.0377,-0.24744 l 0.41266,-1.81579 h 0.4702 z m 3.65247,0 -0.10514,-0.66976 h -1.11301 l -0.39679,0.66976 h -0.5575 l 1.66654,-2.66787 h 0.55749 l 0.45036,2.66787 z m -0.30354,-2.13765 v -0.0651 l 0.004,-0.0651 h -0.01 q -0.0397,0.11163 -0.0932,0.20465 l -0.61106,1.02138 h 0.85707 l -0.13888,-1.00464 q -0.008,-0.0335 -0.008,-0.0912 z m 5.62454,0.24372 q 0.24204,0 0.44044,0.11348 0.20038,0.11163 0.31743,0.30512 0.11706,0.19348 0.11706,0.39999 0,0.21954 -0.11903,0.41116 -0.11706,0.18976 -0.31943,0.29953 -0.20236,0.10977 -0.43052,0.10977 -0.23609,0 -0.44242,-0.11163 -0.20435,-0.11162 -0.3214,-0.30139 -0.11508,-0.18976 -0.11508,-0.40744 0,-0.22325 0.11905,-0.41115 0.11904,-0.18791 0.32536,-0.29768 0.20633,-0.10976 0.42854,-0.10976 z m 6.62049,-0.26418 q -0.12499,-0.08 -0.30156,-0.12838 -0.17459,-0.0483 -0.33133,-0.0483 -0.15276,0 -0.25989,0.0502 -0.10714,0.0484 -0.16468,0.13023 -0.0555,0.08 -0.0555,0.17675 0,0.13394 0.0833,0.23999 0.0833,0.10419 0.31942,0.25116 0.30553,0.19163 0.42259,0.36279 0.11903,0.1693 0.11903,0.37953 0,0.23256 -0.12697,0.42046 -0.12499,0.18604 -0.35315,0.27906 -0.22816,0.0912 -0.53964,0.0912 -0.20236,0 -0.41663,-0.0484 -0.21427,-0.0502 -0.371,-0.13023 l 0.0833,-0.42604 q 0.15077,0.10419 0.34322,0.16558 0.19244,0.0614 0.37497,0.0614 0.2361,0 0.36505,-0.0949 0.12896,-0.0967 0.12896,-0.27163 0,-0.13396 -0.0913,-0.23442 -0.0913,-0.10046 -0.34521,-0.25116 -0.26982,-0.16 -0.39283,-0.3386 -0.12102,-0.18046 -0.12102,-0.39813 0,-0.22511 0.12301,-0.40744 0.123,-0.18232 0.34917,-0.28279 0.22617,-0.10232 0.53567,-0.10232 0.3472,0 0.71027,0.13395 z m 2.46607,2.20462 q -0.44838,0 -0.71225,-0.23628 -0.26188,-0.23813 -0.26188,-0.63627 0,-0.19348 0.0476,-0.39999 l 0.33132,-1.44184 h 0.49401 l -0.33132,1.43439 q -0.0536,0.25117 -0.0536,0.36466 0,0.23999 0.14682,0.37766 0.14681,0.13768 0.39678,0.13768 0.2976,0 0.46822,-0.16744 0.17261,-0.16931 0.25593,-0.53395 l 0.371,-1.613 h 0.49401 l -0.36703,1.60184 q -0.0952,0.41674 -0.25395,0.65115 -0.15673,0.23441 -0.40672,0.3479 -0.24997,0.11349 -0.61899,0.11349 z m 5.16822,-1.98323 q 0,0.29023 -0.14482,0.51162 -0.14483,0.21953 -0.42061,0.34046 -0.27577,0.12093 -0.65867,0.12093 h -0.41663 l -0.21626,0.96371 h -0.494 l 0.60312,-2.66787 h 0.85708 q 0.41663,0 0.65272,0.19348 0.23807,0.19349 0.23807,0.53767 z m -0.51384,0.0335 q 0,-0.17861 -0.12896,-0.28465 -0.12896,-0.10791 -0.37497,-0.10791 h -0.31942 l -0.21823,0.96371 h 0.34719 q 0.32537,0 0.50988,-0.15069 0.18451,-0.1507 0.18451,-0.42046 z m 3.78342,-0.37767 h -1.04555 l -0.17062,0.75533 h 0.97214 l -0.0893,0.38698 h -0.97016 l -0.1726,0.75348 h 1.113 l -0.0853,0.38511 h -1.60701 l 0.60312,-2.66788 h 1.54155 z m -0.58131,-0.6307 h -0.35513 l 0.59916,-0.6065 h 0.44639 z m 4.06515,0.91348 q 0,0.32744 -0.23213,0.53953 -0.23212,0.21209 -0.61105,0.25116 v 0.007 q 0.22418,0.0688 0.30949,0.38883 l 0.21824,0.81116 h -0.52575 l -0.18252,-0.74046 q -0.0417,-0.17116 -0.1369,-0.25302 -0.0933,-0.0837 -0.25395,-0.0837 h -0.17855 l -0.24601,1.0772 h -0.49401 l 0.60312,-2.66787 h 0.8789 q 0.40076,0 0.62495,0.17673 0.22617,0.17674 0.22617,0.49302 z m -0.51583,0.067 q 0,-0.16744 -0.1111,-0.26791 -0.10912,-0.10232 -0.33728,-0.10232 h -0.35314 l -0.19443,0.8558 h 0.32735 q 0.31347,0 0.49004,-0.13023 0.17856,-0.13209 0.17856,-0.35534 z m 3.62867,1.93114 -0.10514,-0.66976 h -1.11301 l -0.3968,0.66976 h -0.55749 l 1.66653,-2.66788 h 0.5575 l 0.45035,2.66788 z m -0.30354,-2.13765 v -0.0651 l 0.004,-0.0651 h -0.01 q -0.0397,0.11163 -0.0933,0.20465 l -0.61106,1.02138 h 0.85708 l -0.13888,-1.00464 q -0.008,-0.0335 -0.008,-0.0912 z m 4.63652,-0.14325 h -0.80549 l -0.51385,2.2809 h -0.49202 l 0.51385,-2.2809 h -0.81938 l 0.0893,-0.38698 h 2.11689 z m 3.0811,0 h -1.04555 l -0.17062,0.75533 h 0.97214 l -0.0893,0.38698 h -0.97015 l -0.17261,0.75348 h 1.113 l -0.0853,0.38511 h -1.60701 l 0.60313,-2.66788 h 1.54153 z" />
      <path
         style="fill:url(#linearGradient146);stroke-width:0.524952"
         d="m 155.19122,122.1007 c -0.0547,-0.0885 -0.0609,-0.22347 -0.0137,-0.29986 0.10295,-0.16657 5.13081,-0.18246 11.59762,-0.0366 5.86449,0.13222 4.464,0.25142 -4.59637,0.39121 -5.17144,0.0798 -6.91291,0.0662 -6.9876,-0.0547 z"
         id="path113" />
      <path
         style="fill:url(#linearGradient144);stroke-width:0.524952"
         d="m 47.07809,122.07414 c -2.161133,-0.0546 -3.961066,-0.13105 -3.999853,-0.16983 -0.101099,-0.1011 11.420731,-0.27033 14.804414,-0.21745 2.418575,0.0378 2.847318,0.0759 2.847318,0.25284 0,0.18099 -0.638382,0.21002 -4.861274,0.22104 -2.673701,0.007 -6.629473,-0.032 -8.790605,-0.0866 z"
         id="path31" />
    </g>
  </g>
</svg>
